<?xml version="1.0" encoding="UTF-8" standalone="no"?>
<!DOCTYPE svg PUBLIC "-//W3C//DTD SVG 1.1//EN"
 "http://www.w3.org/Graphics/SVG/1.1/DTD/svg11.dtd">
<!-- Generated by graphviz version 2.38.0 (20140413.2041)
 -->
<!-- Title: %3 Pages: 1 -->
<svg width="416pt" height="324pt"
 viewBox="0.00 0.00 416.00 324.00" xmlns="http://www.w3.org/2000/svg" xmlns:xlink="http://www.w3.org/1999/xlink">
<g id="graph0" class="graph" transform="scale(1 1) rotate(0) translate(4 320)">
<title>%3</title>
<polygon fill="white" stroke="none" points="-4,4 -4,-320 412,-320 412,4 -4,4"/>
<!-- Question -->
<g id="node1" class="node"><title>Question</title>
<polygon fill="none" stroke="black" points="118,-316 0,-316 0,-263 118,-263 118,-316"/>
<text text-anchor="middle" x="59" y="-300.8" font-family="Times,serif" font-size="14.00">Have you</text>
<text text-anchor="middle" x="59" y="-285.8" font-family="Times,serif" font-size="14.00">talked to people</text>
<text text-anchor="middle" x="59" y="-270.8" font-family="Times,serif" font-size="14.00">who will pay you?</text>
</g>
<!-- Talk -->
<g id="node2" class="node"><title>Talk</title>
<polygon fill="none" stroke="black" points="225,-38 109,-38 109,-0 225,-0 225,-38"/>
<text text-anchor="middle" x="167" y="-22.8" font-family="Times,serif" font-size="14.00">Talk to people</text>
<text text-anchor="middle" x="167" y="-7.8" font-family="Times,serif" font-size="14.00">who will pay you.</text>
</g>
<!-- Question&#45;&gt;Talk -->
<g id="edge1" class="edge"><title>Question&#45;&gt;Talk</title>
<path fill="none" stroke="black" d="M68.0451,-262.705C83.4227,-219.444 116.197,-129.758 149,-56 150.265,-53.1548 151.636,-50.2093 153.036,-47.2846"/>
<polygon fill="black" stroke="black" points="156.25,-48.68 157.52,-38.1615 149.968,-45.5924 156.25,-48.68"/>
<text text-anchor="middle" x="120.5" y="-146.8" font-family="Times,serif" font-size="14.00">No</text>
</g>
<!-- Really -->
<g id="node3" class="node"><title>Really</title>
<polygon fill="none" stroke="black" points="196,-212 138,-212 138,-176 196,-176 196,-212"/>
<text text-anchor="middle" x="167" y="-190.3" font-family="Times,serif" font-size="14.00">Really?</text>
</g>
<!-- Question&#45;&gt;Really -->
<g id="edge2" class="edge"><title>Question&#45;&gt;Really</title>
<path fill="none" stroke="black" d="M88.5115,-262.951C104.36,-249.23 123.78,-232.418 139.337,-218.949"/>
<polygon fill="black" stroke="black" points="141.812,-221.436 147.081,-212.245 137.23,-216.144 141.812,-221.436"/>
<text text-anchor="middle" x="136" y="-233.8" font-family="Times,serif" font-size="14.00">Yes</text>
</g>
<!-- Really&#45;&gt;Talk -->
<g id="edge4" class="edge"><title>Really&#45;&gt;Talk</title>
<path fill="none" stroke="black" d="M167,-175.78C167,-146.038 167,-84.7599 167,-48.5553"/>
<polygon fill="black" stroke="black" points="170.5,-48.187 167,-38.1871 163.5,-48.1871 170.5,-48.187"/>
<text text-anchor="middle" x="175.5" y="-103.3" font-family="Times,serif" font-size="14.00">No</text>
</g>
<!-- ReallyReally -->
<g id="node4" class="node"><title>ReallyReally</title>
<polygon fill="none" stroke="black" points="348,-125 256,-125 256,-89 348,-89 348,-125"/>
<text text-anchor="middle" x="302" y="-103.3" font-family="Times,serif" font-size="14.00">Really really?</text>
</g>
<!-- Really&#45;&gt;ReallyReally -->
<g id="edge3" class="edge"><title>Really&#45;&gt;ReallyReally</title>
<path fill="none" stroke="black" d="M194.319,-175.799C214.996,-162.78 243.583,-144.781 266.105,-130.6"/>
<polygon fill="black" stroke="black" points="268.124,-133.465 274.721,-125.175 264.394,-127.542 268.124,-133.465"/>
<text text-anchor="middle" x="253" y="-146.8" font-family="Times,serif" font-size="14.00">Yes</text>
</g>
<!-- ReallyReally&#45;&gt;Talk -->
<g id="edge5" class="edge"><title>ReallyReally&#45;&gt;Talk</title>
<path fill="none" stroke="black" d="M275.005,-88.8033C254.626,-75.8213 226.431,-57.86 203.959,-43.5443"/>
<polygon fill="black" stroke="black" points="205.659,-40.4772 195.344,-38.0563 201.898,-46.381 205.659,-40.4772"/>
<text text-anchor="middle" x="254.5" y="-59.8" font-family="Times,serif" font-size="14.00">No</text>
</g>
<!-- Continue -->
<g id="node5" class="node"><title>Continue</title>
<polygon fill="none" stroke="black" points="408,-37 342,-37 342,-1 408,-1 408,-37"/>
<text text-anchor="middle" x="375" y="-15.3" font-family="Times,serif" font-size="14.00">Continue</text>
</g>
<!-- ReallyReally&#45;&gt;Continue -->
<g id="edge6" class="edge"><title>ReallyReally&#45;&gt;Continue</title>
<path fill="none" stroke="black" d="M316.773,-88.5966C327.43,-76.0419 341.972,-58.9099 353.857,-44.9081"/>
<polygon fill="black" stroke="black" points="356.695,-46.9728 360.498,-37.084 351.359,-42.4428 356.695,-46.9728"/>
<text text-anchor="middle" x="353" y="-59.8" font-family="Times,serif" font-size="14.00">Yes</text>
</g>
</g>
</svg>
